<?xml version="1.0" encoding="UTF-8" standalone="no"?>
<!-- Created with Inkscape (http://www.inkscape.org/) -->

<svg
   xmlns:dc="http://purl.org/dc/elements/1.1/"
   xmlns:cc="http://creativecommons.org/ns#"
   xmlns:rdf="http://www.w3.org/1999/02/22-rdf-syntax-ns#"
   xmlns:svg="http://www.w3.org/2000/svg"
   xmlns="http://www.w3.org/2000/svg"
   xmlns:xlink="http://www.w3.org/1999/xlink"
   xmlns:sodipodi="http://sodipodi.sourceforge.net/DTD/sodipodi-0.dtd"
   xmlns:inkscape="http://www.inkscape.org/namespaces/inkscape"
   width="256"
   height="256"
   viewBox="0 0 256 256"
   id="svg2"
   version="1.1"
   inkscape:version="0.91 r13725"
   sodipodi:docname="icon.svg">
  <defs
     id="defs4">
    <linearGradient
       inkscape:collect="always"
       id="linearGradient4176">
      <stop
         style="stop-color:#490068;stop-opacity:1"
         offset="0"
         id="stop4178" />
      <stop
         style="stop-color:#8e44ad;stop-opacity:1"
         offset="1"
         id="stop4180" />
    </linearGradient>
    <linearGradient
       inkscape:collect="always"
       id="linearGradient4713">
      <stop
         style="stop-color:#bdc3c7;stop-opacity:1"
         offset="0"
         id="stop4715" />
      <stop
         style="stop-color:#ffffff;stop-opacity:0"
         offset="1"
         id="stop4717" />
    </linearGradient>
    <linearGradient
       inkscape:collect="always"
       xlink:href="#linearGradient4713"
       id="linearGradient4719"
       x1="429.56735"
       y1="578.24713"
       x2="487.28494"
       y2="635.96472"
       gradientUnits="userSpaceOnUse"
       gradientTransform="translate(-244.52344,352.18107)" />
    <linearGradient
       inkscape:collect="always"
       xlink:href="#linearGradient4176"
       id="linearGradient4182"
       x1="-183.1015"
       y1="611.26068"
       x2="235.5"
       y2="1029.8622"
       gradientUnits="userSpaceOnUse" />
  </defs>
  <sodipodi:namedview
     id="base"
     pagecolor="#ffffff"
     bordercolor="#666666"
     borderopacity="1.0"
     inkscape:pageopacity="0.0"
     inkscape:pageshadow="2"
     inkscape:zoom="1.4142136"
     inkscape:cx="173.21099"
     inkscape:cy="78.218311"
     inkscape:document-units="px"
     inkscape:current-layer="layer1"
     showgrid="false"
     inkscape:window-width="1680"
     inkscape:window-height="987"
     inkscape:window-x="1272"
     inkscape:window-y="-8"
     inkscape:window-maximized="1"
     units="px" />
  <metadata
     id="metadata7">
    <rdf:RDF>
      <cc:Work
         rdf:about="">
        <dc:format>image/svg+xml</dc:format>
        <dc:type
           rdf:resource="http://purl.org/dc/dcmitype/StillImage" />
        <dc:title />
      </cc:Work>
    </rdf:RDF>
  </metadata>
  <g
     inkscape:label="Layer 1"
     inkscape:groupmode="layer"
     id="layer1"
     transform="translate(0,-796.36216)">
    <rect
       style="opacity:1;fill:url(#linearGradient4182);fill-opacity:1;stroke:none;stroke-width:5.83900023;stroke-linecap:square;stroke-linejoin:miter;stroke-miterlimit:4;stroke-dasharray:none;stroke-opacity:1"
       id="rect4684"
       width="256"
       height="256"
       x="-2.4999999e-006"
       y="796.36218"
       inkscape:export-xdpi="90"
       inkscape:export-ydpi="90" />
    <path
       style="opacity:1;fill:#ecf0f1;fill-opacity:1;stroke:none;stroke-width:5.83900023;stroke-linecap:square;stroke-linejoin:miter;stroke-miterlimit:4;stroke-dasharray:none;stroke-opacity:1"
       d="M 53 58.880859 L 53 152.57227 L 181.99219 152.57227 L 203 132.1543 L 203 58.880859 L 53 58.880859 z "
       id="rect4686"
       transform="translate(0,796.36216)"
       inkscape:export-xdpi="90"
       inkscape:export-ydpi="90" />
    <rect
       style="opacity:1;fill:#3498db;fill-opacity:1;stroke:none;stroke-width:5.83900023;stroke-linecap:square;stroke-linejoin:miter;stroke-miterlimit:4;stroke-dasharray:none;stroke-opacity:1"
       id="rect4688"
       width="150"
       height="36.309525"
       x="52.999996"
       y="818.93359"
       inkscape:export-xdpi="90"
       inkscape:export-ydpi="90" />
    <circle
       style="opacity:1;fill:#2c3e50;fill-opacity:1;stroke:none;stroke-width:5.83900023;stroke-linecap:square;stroke-linejoin:miter;stroke-miterlimit:4;stroke-dasharray:none;stroke-opacity:1"
       id="path4690"
       cx="81.571442"
       cy="837.08838"
       r="8.5714283"
       inkscape:export-xdpi="90"
       inkscape:export-ydpi="90" />
    <circle
       style="opacity:1;fill:#2c3e50;fill-opacity:1;stroke:none;stroke-width:5.83900023;stroke-linecap:square;stroke-linejoin:miter;stroke-miterlimit:4;stroke-dasharray:none;stroke-opacity:1"
       id="circle4694"
       cx="174.42856"
       cy="837.08838"
       r="8.5714283"
       inkscape:export-xdpi="90"
       inkscape:export-ydpi="90" />
    <rect
       style="opacity:1;fill:#bdc3c7;fill-opacity:1;stroke:none;stroke-width:5.83900023;stroke-linecap:square;stroke-linejoin:miter;stroke-miterlimit:4;stroke-dasharray:none;stroke-opacity:1"
       id="rect4700"
       width="12.374369"
       height="26.263966"
       x="75.384247"
       y="813.85657"
       ry="6.5659914"
       inkscape:export-xdpi="90"
       inkscape:export-ydpi="90" />
    <rect
       ry="6.5659914"
       y="813.85657"
       x="168.24136"
       height="26.263966"
       width="12.374369"
       id="rect4702"
       style="opacity:1;fill:#bdc3c7;fill-opacity:1;stroke:none;stroke-width:5.83900023;stroke-linecap:square;stroke-linejoin:miter;stroke-miterlimit:4;stroke-dasharray:none;stroke-opacity:1"
       inkscape:export-xdpi="90"
       inkscape:export-ydpi="90" />
    <path
       sodipodi:nodetypes="cccc"
       inkscape:connector-curvature="0"
       id="path4711"
       d="m 182.29188,948.93359 0,-20.70813 20.70812,0 z"
       style="opacity:1;fill:url(#linearGradient4719);fill-opacity:1;stroke:none;stroke-width:5.83900023;stroke-linecap:square;stroke-linejoin:miter;stroke-miterlimit:4;stroke-dasharray:none;stroke-opacity:1"
       inkscape:export-xdpi="90"
       inkscape:export-ydpi="90" />
    <text
       xml:space="preserve"
       style="font-style:normal;font-variant:normal;font-weight:normal;font-stretch:normal;font-size:40px;line-height:80.00000119%;font-family:'Segoe UI';-inkscape-font-specification:'Segoe UI, Normal';text-align:center;letter-spacing:0px;word-spacing:0px;writing-mode:lr-tb;text-anchor:middle;fill:#ecf0f1;fill-opacity:1;stroke:none;stroke-width:1px;stroke-linecap:butt;stroke-linejoin:miter;stroke-opacity:1"
       x="128.48828"
       y="996.04327"
       id="text4185"
       sodipodi:linespacing="80.000001%"
       inkscape:export-xdpi="90"
       inkscape:export-ydpi="90"><tspan
         sodipodi:role="line"
         id="tspan4187"
         x="128.48828"
         y="996.04327">PCF</tspan><tspan
         sodipodi:role="line"
         x="128.48828"
         y="1028.0432"
         id="tspan4189">Countdown</tspan></text>
    <g
       style="font-style:normal;font-variant:normal;font-weight:normal;font-stretch:normal;font-size:50px;line-height:125%;font-family:'Bebas Neue';-inkscape-font-specification:'Bebas Neue, Normal';text-align:center;letter-spacing:0px;word-spacing:0px;writing-mode:lr-tb;text-anchor:middle;fill:#000000;fill-opacity:1;stroke:none;stroke-width:1px;stroke-linecap:butt;stroke-linejoin:miter;stroke-opacity:1"
       id="text4164"
       transform="matrix(0.87902193,0,0,0.87902193,-192.21043,166.30014)"
       inkscape:export-xdpi="90"
       inkscape:export-ydpi="90">
      <g
         id="g4245">
        <path
           sodipodi:nodetypes="cssc"
           inkscape:connector-curvature="0"
           id="path4243"
           d="m 374.05948,815.65817 c -1.03843,0.7691 1.55709,2.7689 2.65165,6.0988 0.74168,2.25636 -0.87921,4.77157 0.79549,7.33623 1.71421,2.62516 -1.03184,7.6014 0.44195,7.95495"
           style="fill:none;fill-rule:evenodd;stroke:#000000;stroke-width:0.40000001;stroke-linecap:butt;stroke-linejoin:miter;stroke-miterlimit:4;stroke-dasharray:none;stroke-opacity:1" />
        <path
           sodipodi:nodetypes="csc"
           inkscape:connector-curvature="0"
           id="path4229"
           d="m 393.64158,827.13305 c -0.63174,-0.0182 -1.38761,4.58443 3.9087,10.64581 4.12598,4.72199 -3.27481,12.82259 -3.27481,12.82259"
           style="fill:none;fill-rule:evenodd;stroke:#000000;stroke-width:0.40000001;stroke-linecap:butt;stroke-linejoin:miter;stroke-miterlimit:4;stroke-dasharray:none;stroke-opacity:1" />
        <path
           sodipodi:nodetypes="cc"
           inkscape:connector-curvature="0"
           id="path4215"
           d="m 356.56931,831.56807 c 0.35473,6.92238 1.96524,12.37968 3.71231,17.67767"
           style="fill:none;fill-rule:evenodd;stroke:#000000;stroke-width:0.40000001;stroke-linecap:butt;stroke-linejoin:miter;stroke-miterlimit:4;stroke-dasharray:none;stroke-opacity:1" />
        <path
           sodipodi:nodetypes="csc"
           inkscape:connector-curvature="0"
           id="path4201"
           d="m 341.87499,826.86217 c -0.60288,0.40517 -1.14035,6.77 1.375,7.74999 3.76171,1.46558 1.15545,6.76078 1.1875,6.375"
           style="fill:none;fill-rule:evenodd;stroke:#000000;stroke-width:0.40000001;stroke-linecap:butt;stroke-linejoin:miter;stroke-miterlimit:4;stroke-dasharray:none;stroke-opacity:1" />
        <path
           style="fill:#2c3e5f;fill-opacity:1;stroke:none"
           inkscape:connector-curvature="0"
           id="path4169"
           d="m 346.14315,846.38162 c -0.22555,3.74321 -1.58878,6.41605 -6.04883,10.60538 -4.35121,4.04561 -5.92611,6.90606 -6.16069,10.799 l -0.25863,4.29222 15.87121,0.95634 0.30074,-4.99095 -10.38117,-0.62553 c -0.0349,-0.25256 -0.0198,-0.5021 -0.005,-0.75165 0.11127,-1.84665 1.10889,-3.43953 4.56352,-6.73772 5.41857,-5.13338 7.34104,-8.77434 7.62072,-13.41592 0.33683,-5.58986 -2.26563,-8.95248 -7.65585,-9.27727 -5.39023,-0.3248 -8.37763,2.701 -8.71445,8.29086 l -0.2045,3.39384 5.19058,0.31277 0.22555,-3.74321 c 0.15037,-2.49548 1.30552,-3.3776 3.05235,-3.27234 1.74683,0.10526 2.79372,1.01988 2.60425,4.16418 z" />
        <path
           style="fill:#2c3e5f;fill-opacity:1;stroke:none"
           inkscape:connector-curvature="0"
           id="path4171"
           d="m 358.23318,856.84425 c -0.31266,-2.48037 0.65989,-3.56048 2.39615,-3.77934 1.73626,-0.21887 2.94644,0.5861 3.2591,3.06647 l 2.36375,18.75161 c 0.31266,2.48037 -0.65989,3.56048 -2.39615,3.77934 -1.73626,0.21887 -2.94644,-0.5861 -3.2591,-3.06647 l -2.36375,-18.75161 z m -3.13684,19.09222 c 0.70037,5.55603 4.02742,8.36196 9.38502,7.68661 5.3576,-0.67536 7.88423,-4.21918 7.18386,-9.77521 l -2.2762,-18.0571 c -0.70037,-5.55603 -4.02742,-8.36196 -9.38502,-7.68661 -5.3576,0.67536 -7.88423,4.21918 -7.18386,9.77521 l 2.2762,18.0571 z" />
        <path
           style="fill:#2c3e5f;fill-opacity:1;stroke:none"
           inkscape:connector-curvature="0"
           id="path4173"
           d="m 371.58778,841.69799 4.24349,0.235 -1.4763,26.65915 5.49159,0.30411 1.93522,-34.94646 -3.69434,-0.20458 c -0.97863,2.29941 -2.04053,4.29374 -6.28403,4.05875 l -0.21563,3.89403 z" />
        <path
           style="fill:#2c3e5f;fill-opacity:1;stroke:none;stroke-opacity:1"
           inkscape:connector-curvature="0"
           id="path4175"
           d="m 385.29283,875.84236 c 0.6278,5.5647 3.91795,8.4138 9.28391,7.80842 5.36596,-0.60539 7.93862,-4.11593 7.31081,-9.68063 l -0.7175,-6.35966 c -0.57735,-5.11753 -2.93394,-7.71974 -6.95841,-7.2657 -2.43455,0.27466 -3.90675,1.49742 -4.62655,3.59131 l -0.0994,0.0112 -0.71189,-6.30997 c -0.37556,-3.32888 0.611,-4.39621 2.54871,-4.61482 1.73897,-0.19619 2.93854,0.6245 3.21881,3.10874 l 0.14013,1.24212 5.16722,-0.58296 -0.10089,-0.89433 c -0.62781,-5.5647 -3.76891,-8.43062 -9.13487,-7.82523 -5.66406,0.63901 -7.9883,4.12153 -7.32686,9.98434 l 2.00675,17.78716 z m 7.24354,-10.27685 c 1.73897,-0.19619 2.93853,0.6245 3.21881,3.10874 l 0.70628,6.26029 c 0.28027,2.48424 -0.7119,3.50188 -2.45087,3.69807 -1.73896,0.19619 -2.93293,-0.57481 -3.2132,-3.05905 l -0.70628,-6.26029 c -0.28027,-2.48424 0.70629,-3.55157 2.44526,-3.74776 z" />
        <g
           transform="matrix(0.69799937,-0.18929478,0.19319277,0.71237269,-27.279233,315.83498)"
           id="g4197">
          <path
             style="opacity:1;fill:#e74c3c;fill-opacity:1;stroke:none;stroke-width:12.60000038;stroke-linecap:round;stroke-linejoin:round;stroke-miterlimit:4;stroke-dasharray:none;stroke-opacity:1"
             d="m 321.91036,775.94928 c 0,5.24767 -2.87346,11.43294 -5.23275,15.4375 -2.35928,4.00456 -5.22808,7.56599 -9.21875,7.56599 -3.99067,0 -6.85946,-3.56143 -9.21875,-7.566 -2.35928,-4.00456 -5.23274,-10.18982 -5.23274,-15.43749 0,-10.49534 6.47015,-15.00349 14.45149,-15.00349 7.98134,0 14.4515,4.50815 14.4515,15.00349 z"
             id="path4189"
             inkscape:connector-curvature="0"
             sodipodi:nodetypes="sssssss" />
          <path
             style="opacity:1;fill:#e74c3c;fill-opacity:1;stroke:none;stroke-width:12.60000038;stroke-linecap:round;stroke-linejoin:round;stroke-miterlimit:4;stroke-dasharray:none;stroke-opacity:1"
             d="m 307.00635,796.19284 c 1.28898,1.7882 0.4068,3.00866 2.51723,4.78278 -2.58212,-0.31223 -2.49074,-0.2187 -4.65946,0.0625 2.70499,-2.58204 1.35591,-3.19202 2.14223,-4.84528 z"
             id="rect4192"
             inkscape:connector-curvature="0"
             sodipodi:nodetypes="cccc" />
        </g>
        <g
           transform="matrix(0.99606166,0.08866325,-0.08866325,0.99606166,75.427671,-28.100214)"
           id="g4211">
          <path
             sodipodi:nodetypes="sssssss"
             inkscape:connector-curvature="0"
             id="path4205"
             d="m 365.59726,818.44775 c -0.18235,3.04619 -2.03161,6.5388 -3.51266,8.78305 -1.48104,2.24425 -3.23649,4.21393 -5.50626,4.07805 -2.26978,-0.13587 -3.77771,-2.30089 -4.98045,-4.7058 -1.20274,-2.40491 -2.62215,-6.09318 -2.4398,-9.13936 0.36469,-6.09237 4.20138,-8.48898 8.74093,-8.21724 4.53955,0.27174 8.06294,3.10894 7.69824,9.2013 z"
             style="opacity:1;fill:#2ecc71;fill-opacity:1;stroke:none;stroke-width:12.60000038;stroke-linecap:round;stroke-linejoin:round;stroke-miterlimit:4;stroke-dasharray:none;stroke-opacity:1" />
          <path
             sodipodi:nodetypes="cccc"
             inkscape:connector-curvature="0"
             id="path4207"
             d="m 356.41687,829.69136 c 0.67099,1.0819 0.12683,1.76032 1.26553,2.86202 -1.45779,-0.26916 -1.40906,-0.21175 -2.65234,-0.12236 1.62824,-1.40673 0.88212,-1.80675 1.38681,-2.73966 z"
             style="opacity:1;fill:#2ecc71;fill-opacity:1;stroke:none;stroke-width:12.60000038;stroke-linecap:round;stroke-linejoin:round;stroke-miterlimit:4;stroke-dasharray:none;stroke-opacity:1" />
        </g>
        <g
           transform="translate(18.5,8.9999998)"
           id="g4225">
          <path
             style="opacity:1;fill:#f39c12;fill-opacity:1;stroke:none;stroke-width:12.60000038;stroke-linecap:round;stroke-linejoin:round;stroke-miterlimit:4;stroke-dasharray:none;stroke-opacity:1"
             d="m 381.11151,803.4469 c 0.50462,3.00963 -0.51533,6.82772 -1.45605,9.34669 -0.94071,2.51897 -2.21036,4.83181 -4.45289,5.2078 -2.24254,0.376 -4.19711,-1.39624 -5.90797,-3.47064 -1.71086,-2.07439 -3.92036,-5.35101 -4.42497,-8.36063 -1.00923,-6.01926 2.19314,-9.21437 6.67822,-9.96636 4.48507,-0.752 8.55444,1.22389 9.56366,7.24314 z"
             id="path4219"
             inkscape:connector-curvature="0"
             sodipodi:nodetypes="sssssss" />
          <path
             style="opacity:1;fill:#f39c12;fill-opacity:1;stroke:none;stroke-width:12.60000038;stroke-linecap:round;stroke-linejoin:round;stroke-miterlimit:4;stroke-dasharray:none;stroke-opacity:1"
             d="m 374.6829,816.46117 c 0.89627,0.90411 0.5179,1.68718 1.87444,2.50582 -1.48103,0.0642 -1.42068,0.10925 -2.61235,0.47486 1.27177,-1.7357 0.45501,-1.95843 0.73791,-2.98068 z"
             id="path4221"
             inkscape:connector-curvature="0"
             sodipodi:nodetypes="cccc" />
        </g>
        <g
           transform="matrix(0.85993493,0,0,0.85993493,52.930502,115.64494)"
           id="g4239">
          <path
             style="opacity:1;fill:#3498db;fill-opacity:1;stroke:none;stroke-width:12.60000038;stroke-linecap:round;stroke-linejoin:round;stroke-miterlimit:4;stroke-dasharray:none;stroke-opacity:1"
             d="m 385.02738,796.34848 c -0.13739,3.96548 -2.42687,8.56576 -4.27858,11.53134 -1.85169,2.96558 -4.06905,5.58324 -7.0238,5.48086 -2.95477,-0.10237 -4.98563,-2.8672 -6.62764,-5.95383 -1.64202,-3.08663 -3.60764,-7.83432 -3.47025,-11.79979 0.27477,-7.93096 5.18341,-11.17163 11.09293,-10.96689 5.90952,0.20473 10.58212,3.77736 10.30734,11.70831 z"
             id="path4233"
             inkscape:connector-curvature="0"
             sodipodi:nodetypes="sssssss" />
          <path
             style="opacity:1;fill:#3498db;fill-opacity:1;stroke:none;stroke-width:12.60000038;stroke-linecap:round;stroke-linejoin:round;stroke-miterlimit:4;stroke-dasharray:none;stroke-opacity:1"
             d="m 373.46221,811.2635 c 0.90756,1.38434 0.22243,2.28396 1.73858,3.67874 -1.90368,-0.30218 -1.83846,-0.22915 -3.45159,-0.0723 2.07042,-1.88176 1.08751,-2.37731 1.71301,-3.60644 z"
             id="path4235"
             inkscape:connector-curvature="0"
             sodipodi:nodetypes="cccc" />
        </g>
      </g>
    </g>
  </g>
  <g
     inkscape:groupmode="layer"
     id="layer2"
     inkscape:label="Layer 2" />
</svg>
